<mxfile host="app.diagrams.net" modified="2023-12-04T20:35:37.458Z" agent="Mozilla/5.0 (Windows NT 10.0; Win64; x64) AppleWebKit/537.36 (KHTML, like Gecko) Chrome/119.0.0.0 Safari/537.36" etag="C8jC_5X6a-4_JesiJB1S" version="22.1.5" type="github">
  <diagram name="Page-1" id="FeqBj5vPtAPxshJGMHiz">
    <mxGraphModel dx="2353" dy="893" grid="1" gridSize="10" guides="1" tooltips="1" connect="1" arrows="1" fold="1" page="1" pageScale="1" pageWidth="827" pageHeight="1169" math="0" shadow="0">
      <root>
        <mxCell id="0" />
        <mxCell id="1" parent="0" />
        <mxCell id="XXzeUflkK2KF2CDC8qh_-12" value="" style="group" parent="1" vertex="1" connectable="0">
          <mxGeometry x="610" y="160" width="100" height="110" as="geometry" />
        </mxCell>
        <mxCell id="XXzeUflkK2KF2CDC8qh_-10" value="" style="fontColor=#0066CC;verticalAlign=top;verticalLabelPosition=bottom;labelPosition=center;align=center;html=1;outlineConnect=0;fillColor=#CCCCCC;strokeColor=#6881B3;gradientColor=none;gradientDirection=north;strokeWidth=2;shape=mxgraph.networks.pc;" parent="XXzeUflkK2KF2CDC8qh_-12" vertex="1">
          <mxGeometry y="40" width="100" height="70" as="geometry" />
        </mxCell>
        <mxCell id="XXzeUflkK2KF2CDC8qh_-11" value="Programming Compuer" style="text;html=1;strokeColor=none;fillColor=none;align=center;verticalAlign=middle;whiteSpace=wrap;rounded=0;" parent="XXzeUflkK2KF2CDC8qh_-12" vertex="1">
          <mxGeometry x="20" width="60" height="30" as="geometry" />
        </mxCell>
        <mxCell id="XXzeUflkK2KF2CDC8qh_-14" value="Private&lt;br&gt;Cloud" style="html=1;outlineConnect=0;fillColor=#CCCCCC;strokeColor=#6881B3;gradientColor=none;gradientDirection=north;strokeWidth=2;shape=mxgraph.networks.cloud;fontColor=#ffffff;" parent="1" vertex="1">
          <mxGeometry x="345" y="90" width="90" height="50" as="geometry" />
        </mxCell>
        <mxCell id="XXzeUflkK2KF2CDC8qh_-23" style="edgeStyle=orthogonalEdgeStyle;rounded=0;orthogonalLoop=1;jettySize=auto;html=1;entryX=1;entryY=0.5;entryDx=0;entryDy=0;entryPerimeter=0;startArrow=none;startFill=0;" parent="1" source="XXzeUflkK2KF2CDC8qh_-24" target="XXzeUflkK2KF2CDC8qh_-34" edge="1">
          <mxGeometry relative="1" as="geometry">
            <mxPoint x="435" y="230" as="targetPoint" />
          </mxGeometry>
        </mxCell>
        <mxCell id="XXzeUflkK2KF2CDC8qh_-25" value="" style="edgeStyle=orthogonalEdgeStyle;rounded=0;orthogonalLoop=1;jettySize=auto;html=1;entryX=1;entryY=0.5;entryDx=0;entryDy=0;entryPerimeter=0;endArrow=none;endFill=0;startArrow=classic;startFill=1;" parent="1" source="XXzeUflkK2KF2CDC8qh_-10" target="XXzeUflkK2KF2CDC8qh_-24" edge="1">
          <mxGeometry relative="1" as="geometry">
            <mxPoint x="620" y="245" as="sourcePoint" />
            <mxPoint x="440" y="270" as="targetPoint" />
          </mxGeometry>
        </mxCell>
        <mxCell id="XXzeUflkK2KF2CDC8qh_-24" value="" style="fontColor=#0066CC;verticalAlign=top;verticalLabelPosition=bottom;labelPosition=center;align=center;html=1;outlineConnect=0;fillColor=#CCCCCC;strokeColor=#6881B3;gradientColor=none;gradientDirection=north;strokeWidth=2;shape=mxgraph.networks.secured;" parent="1" vertex="1">
          <mxGeometry x="500" y="215" width="40" height="50" as="geometry" />
        </mxCell>
        <mxCell id="XXzeUflkK2KF2CDC8qh_-34" value="" style="fontColor=#0066CC;verticalAlign=top;verticalLabelPosition=bottom;labelPosition=center;align=center;html=1;outlineConnect=0;fillColor=#CCCCCC;strokeColor=#6881B3;gradientColor=none;gradientDirection=north;strokeWidth=2;shape=mxgraph.networks.server;" parent="1" vertex="1">
          <mxGeometry x="345" y="190" width="90" height="100" as="geometry" />
        </mxCell>
        <mxCell id="XXzeUflkK2KF2CDC8qh_-35" value="Softether Server" style="text;html=1;strokeColor=none;fillColor=none;align=center;verticalAlign=middle;whiteSpace=wrap;rounded=0;" parent="1" vertex="1">
          <mxGeometry x="360" y="160" width="60" height="30" as="geometry" />
        </mxCell>
        <mxCell id="XXzeUflkK2KF2CDC8qh_-38" value="Machine" style="swimlane;whiteSpace=wrap;html=1;" parent="1" vertex="1">
          <mxGeometry x="290" y="490" width="200" height="200" as="geometry" />
        </mxCell>
        <mxCell id="XXzeUflkK2KF2CDC8qh_-39" value="Devices" style="rounded=0;whiteSpace=wrap;html=1;" parent="XXzeUflkK2KF2CDC8qh_-38" vertex="1">
          <mxGeometry x="50" y="130" width="100" height="30" as="geometry" />
        </mxCell>
        <mxCell id="XXzeUflkK2KF2CDC8qh_-40" value="" style="fontColor=#0066CC;verticalAlign=top;verticalLabelPosition=bottom;labelPosition=center;align=center;html=1;outlineConnect=0;fillColor=#CCCCCC;strokeColor=#6881B3;gradientColor=none;gradientDirection=north;strokeWidth=2;shape=mxgraph.networks.switch;" parent="XXzeUflkK2KF2CDC8qh_-38" vertex="1">
          <mxGeometry x="50" y="60" width="100" height="30" as="geometry" />
        </mxCell>
        <mxCell id="XXzeUflkK2KF2CDC8qh_-41" style="edgeStyle=orthogonalEdgeStyle;rounded=0;orthogonalLoop=1;jettySize=auto;html=1;exitX=0.5;exitY=0;exitDx=0;exitDy=0;entryX=0.5;entryY=1;entryDx=0;entryDy=0;entryPerimeter=0;" parent="XXzeUflkK2KF2CDC8qh_-38" source="XXzeUflkK2KF2CDC8qh_-39" target="XXzeUflkK2KF2CDC8qh_-40" edge="1">
          <mxGeometry relative="1" as="geometry" />
        </mxCell>
        <mxCell id="XXzeUflkK2KF2CDC8qh_-42" style="edgeStyle=orthogonalEdgeStyle;rounded=0;orthogonalLoop=1;jettySize=auto;html=1;exitX=0;exitY=0.5;exitDx=0;exitDy=0;exitPerimeter=0;entryX=1;entryY=0.5;entryDx=0;entryDy=0;entryPerimeter=0;" parent="1" source="XXzeUflkK2KF2CDC8qh_-40" target="XXzeUflkK2KF2CDC8qh_-36" edge="1">
          <mxGeometry relative="1" as="geometry" />
        </mxCell>
        <mxCell id="XXzeUflkK2KF2CDC8qh_-44" value="Customer network" style="swimlane;whiteSpace=wrap;html=1;" parent="1" vertex="1">
          <mxGeometry x="-110" y="50" width="320" height="650" as="geometry" />
        </mxCell>
        <mxCell id="XXzeUflkK2KF2CDC8qh_-36" value="" style="fontColor=#0066CC;verticalAlign=top;verticalLabelPosition=bottom;labelPosition=center;align=center;html=1;outlineConnect=0;fillColor=#CCCCCC;strokeColor=#6881B3;gradientColor=none;gradientDirection=north;strokeWidth=2;shape=mxgraph.networks.switch;" parent="XXzeUflkK2KF2CDC8qh_-44" vertex="1">
          <mxGeometry x="115" y="500" width="100" height="30" as="geometry" />
        </mxCell>
        <mxCell id="XXzeUflkK2KF2CDC8qh_-52" value="" style="rounded=1;whiteSpace=wrap;html=1;" parent="XXzeUflkK2KF2CDC8qh_-44" vertex="1">
          <mxGeometry x="30" y="90" width="270" height="290" as="geometry" />
        </mxCell>
        <mxCell id="XXzeUflkK2KF2CDC8qh_-53" value="" style="group" parent="XXzeUflkK2KF2CDC8qh_-44" vertex="1" connectable="0">
          <mxGeometry x="95" y="30" width="90" height="90" as="geometry" />
        </mxCell>
        <mxCell id="XXzeUflkK2KF2CDC8qh_-26" value="" style="fontColor=#0066CC;verticalAlign=top;verticalLabelPosition=bottom;labelPosition=center;align=center;html=1;outlineConnect=0;fillColor=#CCCCCC;strokeColor=#6881B3;gradientColor=none;gradientDirection=north;strokeWidth=2;shape=mxgraph.networks.server;" parent="XXzeUflkK2KF2CDC8qh_-53" vertex="1">
          <mxGeometry y="20.76923076923077" width="90" height="69.23076923076923" as="geometry" />
        </mxCell>
        <mxCell id="XXzeUflkK2KF2CDC8qh_-27" value="Customer Server" style="text;html=1;strokeColor=none;fillColor=none;align=center;verticalAlign=middle;whiteSpace=wrap;rounded=0;" parent="XXzeUflkK2KF2CDC8qh_-44" vertex="1">
          <mxGeometry x="20" y="50" width="60" height="30" as="geometry" />
        </mxCell>
        <mxCell id="XXzeUflkK2KF2CDC8qh_-70" style="edgeStyle=orthogonalEdgeStyle;rounded=0;orthogonalLoop=1;jettySize=auto;html=1;exitX=0.5;exitY=1;exitDx=0;exitDy=0;entryX=0;entryY=0.5;entryDx=0;entryDy=0;" parent="XXzeUflkK2KF2CDC8qh_-44" source="XXzeUflkK2KF2CDC8qh_-56" target="XXzeUflkK2KF2CDC8qh_-58" edge="1">
          <mxGeometry relative="1" as="geometry" />
        </mxCell>
        <mxCell id="XXzeUflkK2KF2CDC8qh_-56" value="Softether bridge" style="rounded=0;whiteSpace=wrap;html=1;" parent="XXzeUflkK2KF2CDC8qh_-44" vertex="1">
          <mxGeometry x="50" y="160" width="120" height="60" as="geometry" />
        </mxCell>
        <mxCell id="XXzeUflkK2KF2CDC8qh_-58" value="Ethernet Port" style="rounded=0;whiteSpace=wrap;html=1;" parent="XXzeUflkK2KF2CDC8qh_-44" vertex="1">
          <mxGeometry x="135" y="365" width="60" height="50" as="geometry" />
        </mxCell>
        <mxCell id="XXzeUflkK2KF2CDC8qh_-71" style="edgeStyle=orthogonalEdgeStyle;rounded=0;orthogonalLoop=1;jettySize=auto;html=1;exitX=0.5;exitY=1;exitDx=0;exitDy=0;entryX=0.5;entryY=0;entryDx=0;entryDy=0;entryPerimeter=0;" parent="XXzeUflkK2KF2CDC8qh_-44" source="XXzeUflkK2KF2CDC8qh_-58" target="XXzeUflkK2KF2CDC8qh_-36" edge="1">
          <mxGeometry relative="1" as="geometry" />
        </mxCell>
        <mxCell id="XXzeUflkK2KF2CDC8qh_-31" value="" style="fontColor=#0066CC;verticalAlign=top;verticalLabelPosition=bottom;labelPosition=center;align=center;html=1;outlineConnect=0;fillColor=#CCCCCC;strokeColor=#6881B3;gradientColor=none;gradientDirection=north;strokeWidth=2;shape=mxgraph.networks.secured;" parent="1" vertex="1">
          <mxGeometry x="280" y="215" width="40" height="50" as="geometry" />
        </mxCell>
        <mxCell id="XXzeUflkK2KF2CDC8qh_-32" value="" style="edgeStyle=orthogonalEdgeStyle;rounded=0;orthogonalLoop=1;jettySize=auto;html=1;entryX=0;entryY=0.5;entryDx=0;entryDy=0;entryPerimeter=0;startArrow=classic;startFill=1;endArrow=none;endFill=0;exitX=1;exitY=0.5;exitDx=0;exitDy=0;" parent="1" source="XXzeUflkK2KF2CDC8qh_-56" target="XXzeUflkK2KF2CDC8qh_-31" edge="1">
          <mxGeometry relative="1" as="geometry">
            <mxPoint x="280" y="340" as="sourcePoint" />
            <mxPoint x="340" y="270" as="targetPoint" />
          </mxGeometry>
        </mxCell>
        <mxCell id="XXzeUflkK2KF2CDC8qh_-57" value="Secured VPN HTTPS Connection" style="edgeLabel;html=1;align=center;verticalAlign=middle;resizable=0;points=[];" parent="XXzeUflkK2KF2CDC8qh_-32" vertex="1" connectable="0">
          <mxGeometry x="0.05" y="-1" relative="1" as="geometry">
            <mxPoint x="-1" as="offset" />
          </mxGeometry>
        </mxCell>
        <mxCell id="XXzeUflkK2KF2CDC8qh_-29" style="edgeStyle=orthogonalEdgeStyle;rounded=0;orthogonalLoop=1;jettySize=auto;html=1;entryX=0;entryY=0.5;entryDx=0;entryDy=0;entryPerimeter=0;startArrow=none;startFill=0;endArrow=classic;endFill=1;" parent="1" source="XXzeUflkK2KF2CDC8qh_-31" target="XXzeUflkK2KF2CDC8qh_-34" edge="1">
          <mxGeometry relative="1" as="geometry">
            <mxPoint x="335" y="230" as="targetPoint" />
          </mxGeometry>
        </mxCell>
        <mxCell id="XXzeUflkK2KF2CDC8qh_-60" value="" style="endArrow=none;dashed=1;html=1;rounded=0;" parent="1" edge="1">
          <mxGeometry width="50" height="50" relative="1" as="geometry">
            <mxPoint x="-140" y="320" as="sourcePoint" />
            <mxPoint x="730" y="320" as="targetPoint" />
          </mxGeometry>
        </mxCell>
        <mxCell id="XXzeUflkK2KF2CDC8qh_-64" style="edgeStyle=orthogonalEdgeStyle;rounded=0;orthogonalLoop=1;jettySize=auto;html=1;exitX=0.5;exitY=1;exitDx=0;exitDy=0;exitPerimeter=0;entryX=1;entryY=0.5;entryDx=0;entryDy=0;entryPerimeter=0;" parent="1" source="XXzeUflkK2KF2CDC8qh_-10" target="XXzeUflkK2KF2CDC8qh_-59" edge="1">
          <mxGeometry relative="1" as="geometry" />
        </mxCell>
        <mxCell id="XXzeUflkK2KF2CDC8qh_-65" value="Layer 2 (MAC) Connection" style="edgeLabel;html=1;align=center;verticalAlign=middle;resizable=0;points=[];" parent="XXzeUflkK2KF2CDC8qh_-64" vertex="1" connectable="0">
          <mxGeometry x="0.3197" y="2" relative="1" as="geometry">
            <mxPoint x="-1" as="offset" />
          </mxGeometry>
        </mxCell>
        <mxCell id="XXzeUflkK2KF2CDC8qh_-66" value="" style="group" parent="1" vertex="1" connectable="0">
          <mxGeometry x="340" y="340" width="100" height="70" as="geometry" />
        </mxCell>
        <mxCell id="XXzeUflkK2KF2CDC8qh_-59" value="" style="fontColor=#0066CC;verticalAlign=top;verticalLabelPosition=bottom;labelPosition=center;align=center;html=1;outlineConnect=0;fillColor=#CCCCCC;strokeColor=#6881B3;gradientColor=none;gradientDirection=north;strokeWidth=2;shape=mxgraph.networks.switch;" parent="XXzeUflkK2KF2CDC8qh_-66" vertex="1">
          <mxGeometry y="40" width="100" height="30" as="geometry" />
        </mxCell>
        <mxCell id="XXzeUflkK2KF2CDC8qh_-62" value="Automation Virtual Hub" style="text;html=1;strokeColor=none;fillColor=none;align=center;verticalAlign=middle;whiteSpace=wrap;rounded=0;" parent="XXzeUflkK2KF2CDC8qh_-66" vertex="1">
          <mxGeometry x="5" width="90" height="30" as="geometry" />
        </mxCell>
        <mxCell id="XXzeUflkK2KF2CDC8qh_-67" style="edgeStyle=orthogonalEdgeStyle;rounded=0;orthogonalLoop=1;jettySize=auto;html=1;exitX=0;exitY=0.5;exitDx=0;exitDy=0;exitPerimeter=0;entryX=0.5;entryY=0;entryDx=0;entryDy=0;" parent="1" source="XXzeUflkK2KF2CDC8qh_-59" target="XXzeUflkK2KF2CDC8qh_-58" edge="1">
          <mxGeometry relative="1" as="geometry" />
        </mxCell>
        <mxCell id="XXzeUflkK2KF2CDC8qh_-68" value="Layer 2 (MAC) Binding" style="edgeLabel;html=1;align=center;verticalAlign=middle;resizable=0;points=[];" parent="XXzeUflkK2KF2CDC8qh_-67" vertex="1" connectable="0">
          <mxGeometry x="0.2656" y="2" relative="1" as="geometry">
            <mxPoint x="-1" as="offset" />
          </mxGeometry>
        </mxCell>
        <mxCell id="cRaBOwT6LeiMHloVLiX0-1" value="HTTPS 443" style="text;html=1;strokeColor=none;fillColor=none;align=center;verticalAlign=middle;whiteSpace=wrap;rounded=0;" vertex="1" parent="1">
          <mxGeometry x="270" y="270" width="60" height="30" as="geometry" />
        </mxCell>
      </root>
    </mxGraphModel>
  </diagram>
</mxfile>
